<svg xmlns="http://www.w3.org/2000/svg" width="145.416" height="22.416" viewBox="0 0 145.416 22.416"><defs><style>.a{fill:#1d1c21;}.b{fill:#f62c84;}</style></defs><g transform="translate(-139.048 -27.48)"><path class="a" d="M67.776-15.7,66.336-8.52h8.928l-.216,1.1H66.12L64.632,0H63.408l3.36-16.8H78l-.24,1.1ZM80.4-12.528h1.2L79.1,0H77.9Zm1.344-3.048a.881.881,0,0,1-.648-.264.853.853,0,0,1-.264-.624,1.036,1.036,0,0,1,.3-.744,1,1,0,0,1,.756-.312.921.921,0,0,1,.66.264.835.835,0,0,1,.276.624,1,1,0,0,1-.312.756A1.066,1.066,0,0,1,81.744-15.576ZM86.352-3.624a4.305,4.305,0,0,0-.1.888q0,1.8,1.92,1.8a3.215,3.215,0,0,0,2.04-.7l.36.888A4.123,4.123,0,0,1,87.888.1a2.952,2.952,0,0,1-2.1-.708,2.549,2.549,0,0,1-.756-1.956,4.651,4.651,0,0,1,.1-.96L86.736-11.5H84.408l.192-1.032h2.328l.552-2.736h1.2l-.552,2.736h3.984L91.92-11.5H87.936Zm15.744-9a4.661,4.661,0,0,1,3.288,1.068,3.812,3.812,0,0,1,1.152,2.94,6.983,6.983,0,0,1-.144,1.368L104.952,0h-1.2l1.44-7.248a5.649,5.649,0,0,0,.12-1.2,2.913,2.913,0,0,0-.9-2.292,3.826,3.826,0,0,0-2.628-.8,5.4,5.4,0,0,0-3.6,1.212,5.915,5.915,0,0,0-1.9,3.516L94.92,0h-1.2l2.5-12.528h1.176l-.48,2.376a5.524,5.524,0,0,1,2.22-1.86A7.016,7.016,0,0,1,102.1-12.624ZM110.928-6q-.048.528-.048.792a4.063,4.063,0,0,0,1.176,3.132,4.908,4.908,0,0,0,3.456,1.092,6.531,6.531,0,0,0,2.436-.444,5.089,5.089,0,0,0,1.86-1.236l.552.84a5.6,5.6,0,0,1-2.148,1.416,7.709,7.709,0,0,1-2.8.5A5.976,5.976,0,0,1,111.228-1.3,4.97,4.97,0,0,1,109.7-5.16a8.132,8.132,0,0,1,.888-3.816,6.767,6.767,0,0,1,2.448-2.676,6.49,6.49,0,0,1,3.5-.972,5.357,5.357,0,0,1,3.888,1.392,5.091,5.091,0,0,1,1.44,3.84A8.208,8.208,0,0,1,121.728-6Zm5.592-5.592A5.209,5.209,0,0,0,113-10.32a5.988,5.988,0,0,0-1.932,3.384h9.648a6.076,6.076,0,0,0,.024-.624,3.842,3.842,0,0,0-1.152-2.964A4.339,4.339,0,0,0,116.52-11.592ZM127.68.1a8.783,8.783,0,0,1-2.8-.444,5.591,5.591,0,0,1-2.076-1.14l.648-.936a4.91,4.91,0,0,0,1.86,1.068,7.586,7.586,0,0,0,2.46.4,5.579,5.579,0,0,0,3.012-.684,2.149,2.149,0,0,0,1.068-1.908,1.446,1.446,0,0,0-.432-1.1,2.763,2.763,0,0,0-1.056-.612q-.624-.2-1.728-.444a15.73,15.73,0,0,1-2.1-.552,3.287,3.287,0,0,1-1.356-.9,2.4,2.4,0,0,1-.552-1.668,3.239,3.239,0,0,1,1.428-2.76,6.359,6.359,0,0,1,3.8-1.032,8.391,8.391,0,0,1,2.328.324,4.746,4.746,0,0,1,1.8.9l-.552.936a4.728,4.728,0,0,0-1.668-.828,7.3,7.3,0,0,0-2-.276,5.107,5.107,0,0,0-2.892.72,2.194,2.194,0,0,0-1.068,1.9,1.516,1.516,0,0,0,.432,1.14,2.776,2.776,0,0,0,1.092.636q.66.216,1.764.456a16.059,16.059,0,0,1,2.076.54A3.259,3.259,0,0,1,132.5-5.3a2.317,2.317,0,0,1,.552,1.632,3.178,3.178,0,0,1-1.464,2.76A6.784,6.784,0,0,1,127.68.1Zm11.472,0a8.783,8.783,0,0,1-2.8-.444,5.591,5.591,0,0,1-2.076-1.14l.648-.936a4.91,4.91,0,0,0,1.86,1.068,7.586,7.586,0,0,0,2.46.4,5.579,5.579,0,0,0,3.012-.684,2.149,2.149,0,0,0,1.068-1.908,1.446,1.446,0,0,0-.432-1.1,2.763,2.763,0,0,0-1.056-.612q-.624-.2-1.728-.444a15.73,15.73,0,0,1-2.1-.552,3.286,3.286,0,0,1-1.356-.9,2.4,2.4,0,0,1-.552-1.668,3.239,3.239,0,0,1,1.428-2.76,6.359,6.359,0,0,1,3.8-1.032,8.391,8.391,0,0,1,2.328.324,4.746,4.746,0,0,1,1.8.9l-.552.936a4.728,4.728,0,0,0-1.668-.828,7.3,7.3,0,0,0-2-.276,5.107,5.107,0,0,0-2.892.72,2.194,2.194,0,0,0-1.068,1.9,1.516,1.516,0,0,0,.432,1.14,2.776,2.776,0,0,0,1.092.636q.66.216,1.764.456a16.059,16.059,0,0,1,2.076.54,3.259,3.259,0,0,1,1.332.876,2.317,2.317,0,0,1,.552,1.632,3.178,3.178,0,0,1-1.464,2.76A6.784,6.784,0,0,1,139.152.1Z" transform="translate(139 45)"/><path class="b" d="M8.112-12.528,7.728-10.56h7.1l-.816,4.08H6.888L6.456-4.272H14.88L14.016,0H.048l3.36-16.8H17.064L16.2-12.528Zm24.96-.6L30.456,0H25.344l.24-1.2A4.93,4.93,0,0,1,22.032.24,5.118,5.118,0,0,1,19.44-.48a5.455,5.455,0,0,1-2.028-2.1,6.5,6.5,0,0,1-.78-3.252,7.85,7.85,0,0,1,.948-3.84,7.133,7.133,0,0,1,2.556-2.712,6.547,6.547,0,0,1,3.48-.984,4.187,4.187,0,0,1,3.744,1.632l.288-1.392ZM22.128-6.1a2.136,2.136,0,0,0,.516,1.5,1.838,1.838,0,0,0,1.428.564,2.1,2.1,0,0,0,1.716-.816,3.371,3.371,0,0,0,.66-2.184,2.136,2.136,0,0,0-.516-1.5A1.838,1.838,0,0,0,24.5-9.1a2.1,2.1,0,0,0-1.716.816A3.371,3.371,0,0,0,22.128-6.1ZM38.3.24A15.806,15.806,0,0,1,35.016-.1,8.29,8.29,0,0,1,32.544-.96l1.872-3.7a7.726,7.726,0,0,0,2.172.888,9.746,9.746,0,0,0,2.388.312q1.608,0,1.608-.624,0-.264-.42-.4a8.633,8.633,0,0,0-1.332-.252,17.328,17.328,0,0,1-2.4-.516A4.052,4.052,0,0,1,34.7-6.3a2.865,2.865,0,0,1-.744-2.1,4.086,4.086,0,0,1,2.064-3.7,10.026,10.026,0,0,1,5.328-1.272,14.886,14.886,0,0,1,2.772.252,10.008,10.008,0,0,1,2.364.732l-1.872,3.7A7.681,7.681,0,0,0,40.7-9.672a3.064,3.064,0,0,0-1.26.192q-.4.192-.4.456t.408.4a11.306,11.306,0,0,0,1.392.3,16.966,16.966,0,0,1,2.364.516,3.973,3.973,0,0,1,1.7,1.056,2.859,2.859,0,0,1,.732,2.076,3.97,3.97,0,0,1-.972,2.7,5.84,5.84,0,0,1-2.64,1.668A11.838,11.838,0,0,1,38.3.24Zm25.1-13.368L55.344.264a13.687,13.687,0,0,1-2.112,2.8,6.2,6.2,0,0,1-2.2,1.416,8.021,8.021,0,0,1-2.724.42,7.625,7.625,0,0,1-2.148-.312,5.117,5.117,0,0,1-1.716-.816L46.8,0a3.18,3.18,0,0,0,1.968.7A1.829,1.829,0,0,0,50.112.144l-2.88-13.272h5.4l1.344,7.056L58.1-13.128Z" transform="translate(139 45)"/></g></svg>