<?xml version="1.0" ?><svg id="icons" fill="#fff" viewBox="0 0 44 46" xmlns="http://www.w3.org/2000/svg"><title/><g id="Icon"><path d="M22,31.72a8,8,0,1,1,8.05-8A8,8,0,0,1,22,31.72Zm0-12a4,4,0,1,0,4,4A4,4,0,0,0,22,19.72Z"/><path d="M25.33,46H18.18c-2,0-3.18-2.39-3.18-3.69V40.89a20.54,20.54,0,0,1-3.21-1.69L9.9,40.58a3,3,0,0,1-4.29-.75L1,33.47A3.14,3.14,0,0,1,.42,31.7a3,3,0,0,1,1.27-2.51l2-1.39a18.76,18.76,0,0,1-.08-8.87L1.29,17.35a3,3,0,0,1-.75-4.18l4.6-6.55a3,3,0,0,1,4.18-.74l2.2,1.54A27.67,27.67,0,0,1,15,5.57V2a2,2,0,0,1,2-2L27.05,0.17a2,2,0,0,1,1.94,2V5.55a31.7,31.7,0,0,1,3.51,1.77l2.06-1.4a3,3,0,0,1,4.19.72l4.68,6.52a3,3,0,0,1,.37,2.79,3.18,3.18,0,0,1-1.18,1.47l-1.84,1.3a18.69,18.69,0,0,1,0,9l1.65,1.15A3,3,0,0,1,43.18,33l-4.63,6.56a3,3,0,0,1-2,1.23,3.05,3.05,0,0,1-2.28-.5l-1.79-1.21A32.25,32.25,0,0,1,29,40.9v1.41A3.67,3.67,0,0,1,25.33,46ZM19,42h6V38l1.44-.43A15.26,15.26,0,0,0,31.3,35.1l1.16-.89,3.35,2.29,3.49-4.94-3.22-2.24,0.47-1.41a14.78,14.78,0,0,0,0-9.37l-0.46-1.4,3.49-2.47-3.51-4.9-3.61,2.47-1.16-.89a15.3,15.3,0,0,0-4.85-2.45L25,8.46V4H19V8.44l-1.42.44a14.8,14.8,0,0,0-4.8,2.57l-1.19.93L7.86,9.75,4.42,14.64,8.25,17.3,7.81,18.7A14.82,14.82,0,0,0,7.89,28l0.47,1.4-3.52,2.5,3.49,4.87,3.43-2.51L13,35.14a13.91,13.91,0,0,0,4.58,2.41L19,38v4Zm16.25-4.71h0ZM36.59,37h0Zm3.56-21.55h0ZM36.89,9.19l0,0Z"/></g></svg>